<svg xmlns="http://www.w3.org/2000/svg" xmlns:xlink="http://www.w3.org/1999/xlink" width="80" zoomAndPan="magnify" viewBox="0 0 60 60" height="80" preserveAspectRatio="xMidYMid meet" version="1.0"><defs><g/><clipPath id="d1b5dd25f1"><rect x="0" width="57" y="0" height="52"/></clipPath><clipPath id="8f8d31e59b"><path d="M 0.320312 1 L 3 1 L 3 5 L 0.320312 5 Z M 0.320312 1 " clip-rule="nonzero"/></clipPath><clipPath id="266a2680d9"><rect x="0" width="34" y="0" height="6"/></clipPath></defs><g transform="matrix(1, 0, 0, 1, 2, -0.000000000000001479)"><g clip-path="url(#d1b5dd25f1)"><g fill="#000000" fill-opacity="1"><g transform="translate(1.204941, 33.828482)"><g><path d="M 14.96875 -26.8125 C 16.132812 -26.519531 17.078125 -25.832031 17.796875 -24.75 C 18.578125 -23.519531 19.039062 -22.265625 19.1875 -20.984375 C 19.21875 -20.578125 19.03125 -20.382812 18.625 -20.40625 C 18.226562 -20.414062 17.957031 -20.628906 17.8125 -21.046875 C 17.75 -21.265625 17.691406 -21.472656 17.640625 -21.671875 C 17.617188 -21.816406 17.585938 -21.957031 17.546875 -22.09375 C 17.304688 -22.96875 16.898438 -23.796875 16.328125 -24.578125 C 15.609375 -25.585938 14.707031 -26.117188 13.625 -26.171875 C 12.863281 -26.179688 12.171875 -26.046875 11.546875 -25.765625 C 9.867188 -25.046875 8.414062 -23.960938 7.1875 -22.515625 C 5.957031 -21.078125 4.9375 -19.394531 4.125 -17.46875 C 3.320312 -15.550781 2.710938 -13.515625 2.296875 -11.359375 C 1.890625 -9.210938 1.65625 -7.070312 1.59375 -4.9375 C 1.539062 -2.800781 1.648438 -0.796875 1.921875 1.078125 C 2.191406 2.953125 2.597656 4.566406 3.140625 5.921875 C 3.691406 7.285156 4.347656 8.332031 5.109375 9.0625 C 5.867188 9.789062 6.789062 10.03125 7.875 9.78125 C 8.96875 9.53125 10.3125 8.160156 11.90625 5.671875 C 13.5 3.179688 14.910156 -1.222656 16.140625 -7.546875 C 16.203125 -7.773438 16.191406 -7.929688 16.109375 -8.015625 C 16.023438 -8.097656 15.847656 -8.140625 15.578125 -8.140625 C 15.566406 -8.140625 15.550781 -8.140625 15.53125 -8.140625 C 15.476562 -8.140625 15.425781 -8.132812 15.375 -8.125 C 14.90625 -8.09375 14.425781 -8.0625 13.9375 -8.03125 C 12.664062 -7.9375 11.394531 -7.84375 10.125 -7.75 C 9.769531 -7.738281 9.410156 -7.738281 9.046875 -7.75 C 9.035156 -7.75 9.03125 -7.75 9.03125 -7.75 C 8.945312 -7.769531 8.867188 -7.804688 8.796875 -7.859375 C 8.722656 -7.910156 8.664062 -7.972656 8.625 -8.046875 C 8.582031 -8.117188 8.570312 -8.191406 8.59375 -8.265625 C 8.613281 -8.335938 8.664062 -8.382812 8.75 -8.40625 C 8.8125 -8.425781 8.875 -8.445312 8.9375 -8.46875 C 9.164062 -8.5625 9.398438 -8.617188 9.640625 -8.640625 C 10.890625 -8.773438 11.960938 -8.867188 12.859375 -8.921875 C 13.753906 -8.972656 14.953125 -9.117188 16.453125 -9.359375 C 17.960938 -9.597656 18.6875 -8.929688 18.625 -7.359375 C 18.5625 -5.785156 18.601562 -4.082031 18.75 -2.25 C 18.851562 -1.226562 18.96875 -0.210938 19.09375 0.796875 C 19.21875 1.816406 19.363281 2.847656 19.53125 3.890625 C 19.59375 4.316406 19.660156 4.75 19.734375 5.1875 C 19.753906 5.28125 19.773438 5.375 19.796875 5.46875 C 19.804688 5.5625 19.828125 5.65625 19.859375 5.75 C 19.921875 6.082031 19.800781 6.253906 19.5 6.265625 C 19.101562 6.304688 18.828125 6.171875 18.671875 5.859375 C 18.585938 5.660156 18.515625 5.457031 18.453125 5.25 C 18.441406 5.226562 18.429688 5.195312 18.421875 5.15625 C 17.898438 3.675781 17.582031 2.21875 17.46875 0.78125 C 17.375 -0.175781 17.285156 -1.144531 17.203125 -2.125 C 17.148438 -2.601562 17.097656 -3.078125 17.046875 -3.546875 C 16.898438 -3.429688 16.796875 -3.300781 16.734375 -3.15625 C 16.679688 -3.007812 16.648438 -2.859375 16.640625 -2.703125 C 16.628906 -2.617188 16.613281 -2.539062 16.59375 -2.46875 C 15.539062 0.789062 14.351562 3.585938 13.03125 5.921875 C 11.71875 8.253906 10.320312 9.789062 8.84375 10.53125 C 7.363281 11.28125 6.082031 11.363281 5 10.78125 C 3.914062 10.207031 2.988281 9.15625 2.21875 7.625 C 1.445312 6.09375 0.851562 4.253906 0.4375 2.109375 C 0.03125 -0.0351562 -0.171875 -2.332031 -0.171875 -4.78125 C -0.179688 -7.238281 0.0351562 -9.679688 0.484375 -12.109375 C 0.941406 -14.535156 1.65625 -16.789062 2.625 -18.875 C 3.59375 -20.96875 4.835938 -22.722656 6.359375 -24.140625 C 7.878906 -25.566406 9.707031 -26.5 11.84375 -26.9375 C 12.832031 -27.132812 13.875 -27.09375 14.96875 -26.8125 Z M 14.96875 -26.8125 "/></g></g></g><g fill="#000000" fill-opacity="1"><g transform="translate(21.217929, 33.828482)"><g><path d="M 8.421875 -4.21875 C 8.546875 -4.289062 8.671875 -4.347656 8.796875 -4.390625 C 8.921875 -4.429688 9 -4.425781 9.03125 -4.375 C 9.070312 -4.332031 9.023438 -4.234375 8.890625 -4.078125 C 8.453125 -3.566406 7.925781 -3.101562 7.3125 -2.6875 C 6.707031 -2.28125 6.082031 -1.929688 5.4375 -1.640625 C 4.9375 -1.410156 4.40625 -1.226562 3.84375 -1.09375 C 3.289062 -0.96875 2.742188 -0.941406 2.203125 -1.015625 C 1.660156 -1.085938 1.164062 -1.328125 0.71875 -1.734375 C 0.03125 -2.367188 -0.25 -3.140625 -0.125 -4.046875 C -0.03125 -4.765625 0.242188 -5.375 0.703125 -5.875 C 1.171875 -6.382812 1.757812 -6.726562 2.46875 -6.90625 C 3.050781 -7.039062 3.640625 -7.054688 4.234375 -6.953125 C 4.492188 -6.910156 4.738281 -6.820312 4.96875 -6.6875 C 5.164062 -6.53125 5.273438 -6.34375 5.296875 -6.125 C 5.316406 -5.914062 5.238281 -5.71875 5.0625 -5.53125 C 4.6875 -5.195312 4.253906 -5 3.765625 -4.9375 C 3.210938 -4.84375 2.660156 -4.785156 2.109375 -4.765625 C 1.847656 -4.765625 1.660156 -4.707031 1.546875 -4.59375 C 1.441406 -4.476562 1.378906 -4.289062 1.359375 -4.03125 C 1.273438 -3.300781 1.507812 -2.707031 2.0625 -2.25 C 2.40625 -1.96875 2.820312 -1.847656 3.3125 -1.890625 C 3.800781 -1.929688 4.320312 -2.0625 4.875 -2.28125 C 5.4375 -2.507812 5.976562 -2.773438 6.5 -3.078125 C 7.03125 -3.378906 7.507812 -3.664062 7.9375 -3.9375 C 8.125 -4.050781 8.285156 -4.144531 8.421875 -4.21875 Z M 2.34375 -5.78125 C 2.34375 -5.757812 2.335938 -5.75 2.328125 -5.75 C 2.296875 -5.726562 2.257812 -5.703125 2.21875 -5.671875 C 2.1875 -5.640625 2.15625 -5.609375 2.125 -5.578125 C 2.09375 -5.546875 2.078125 -5.523438 2.078125 -5.515625 C 2.085938 -5.472656 2.191406 -5.460938 2.390625 -5.484375 C 2.585938 -5.503906 2.804688 -5.535156 3.046875 -5.578125 C 3.285156 -5.628906 3.484375 -5.695312 3.640625 -5.78125 C 3.804688 -5.863281 3.859375 -5.96875 3.796875 -6.09375 C 3.765625 -6.125 3.722656 -6.148438 3.671875 -6.171875 C 3.628906 -6.203125 3.582031 -6.222656 3.53125 -6.234375 C 3.300781 -6.234375 3.085938 -6.1875 2.890625 -6.09375 C 2.703125 -6.007812 2.519531 -5.90625 2.34375 -5.78125 Z M 2.34375 -5.78125 "/></g></g></g><g fill="#000000" fill-opacity="1"><g transform="translate(29.673875, 33.828482)"><g><path d="M 6.3125 -4.078125 C 6.40625 -4.304688 6.507812 -4.421875 6.625 -4.421875 C 6.75 -4.421875 6.789062 -4.304688 6.75 -4.078125 C 6.550781 -3.484375 6.316406 -2.910156 6.046875 -2.359375 C 5.785156 -1.816406 5.425781 -1.332031 4.96875 -0.90625 C 4.613281 -0.550781 4.195312 -0.328125 3.71875 -0.234375 C 3.050781 -0.140625 2.503906 -0.21875 2.078125 -0.46875 C 1.648438 -0.71875 1.3125 -1.078125 1.0625 -1.546875 C 0.8125 -2.015625 0.625 -2.523438 0.5 -3.078125 C 0.382812 -3.628906 0.304688 -4.171875 0.265625 -4.703125 C 0.171875 -5.691406 0.101562 -6.992188 0.0625 -8.609375 C 0.0195312 -10.222656 0.0351562 -11.925781 0.109375 -13.71875 C 0.191406 -15.519531 0.367188 -17.1875 0.640625 -18.71875 C 0.921875 -20.257812 1.328125 -21.453125 1.859375 -22.296875 C 2.171875 -22.710938 2.53125 -22.921875 2.9375 -22.921875 C 3.351562 -22.929688 3.71875 -22.742188 4.03125 -22.359375 C 4.25 -22.066406 4.410156 -21.753906 4.515625 -21.421875 C 4.628906 -21.085938 4.707031 -20.75 4.75 -20.40625 C 4.863281 -19.226562 4.847656 -17.976562 4.703125 -16.65625 C 4.554688 -15.34375 4.320312 -13.941406 4 -12.453125 C 3.6875 -10.960938 3.3125 -9.648438 2.875 -8.515625 C 2.445312 -7.378906 2.085938 -6.476562 1.796875 -5.8125 C 1.640625 -5.550781 1.578125 -5.148438 1.609375 -4.609375 C 1.660156 -4.015625 1.769531 -3.394531 1.9375 -2.75 C 2.113281 -2.113281 2.359375 -1.609375 2.671875 -1.234375 C 2.960938 -0.929688 3.285156 -0.835938 3.640625 -0.953125 C 4.003906 -1.066406 4.363281 -1.3125 4.71875 -1.6875 C 5.082031 -2.0625 5.398438 -2.46875 5.671875 -2.90625 C 5.953125 -3.34375 6.164062 -3.734375 6.3125 -4.078125 Z M 1.65625 -13 C 1.613281 -12.625 1.578125 -12.046875 1.546875 -11.265625 C 1.515625 -10.484375 1.484375 -9.691406 1.453125 -8.890625 C 1.429688 -7.992188 1.40625 -7.296875 1.375 -6.796875 C 1.664062 -7.429688 2 -8.359375 2.375 -9.578125 C 2.75 -10.804688 3.09375 -12.25 3.40625 -13.90625 C 3.71875 -15.570312 3.921875 -17.375 4.015625 -19.3125 C 3.960938 -20.4375 3.828125 -21.195312 3.609375 -21.59375 C 3.390625 -22 3.148438 -22.035156 2.890625 -21.703125 C 2.640625 -21.367188 2.4375 -20.671875 2.28125 -19.609375 C 2.050781 -17.847656 1.875 -16.082031 1.75 -14.3125 C 1.707031 -13.875 1.675781 -13.4375 1.65625 -13 Z M 1.65625 -13 "/></g></g></g><g fill="#000000" fill-opacity="1"><g transform="translate(35.884803, 33.828482)"><g><path d="M 5.296875 -4.765625 C 5.296875 -4.628906 5.015625 -4.390625 4.453125 -4.046875 C 3.890625 -3.710938 3.472656 -3.457031 3.203125 -3.28125 C 2.929688 -3.113281 2.796875 -3.007812 2.796875 -2.96875 C 2.847656 -2.851562 2.90625 -2.65625 2.96875 -2.375 C 3.03125 -2.101562 3.050781 -1.804688 3.03125 -1.484375 C 3.019531 -1.171875 2.914062 -0.890625 2.71875 -0.640625 C 2.53125 -0.390625 2.210938 -0.238281 1.765625 -0.1875 C 1.316406 -0.144531 0.914062 -0.207031 0.5625 -0.375 C 0.207031 -0.550781 -0.0078125 -0.800781 -0.09375 -1.125 C -0.1875 -1.457031 -0.078125 -1.84375 0.234375 -2.28125 C 0.429688 -2.519531 0.671875 -2.734375 0.953125 -2.921875 C 1.054688 -2.984375 1.160156 -3.050781 1.265625 -3.125 C 0.921875 -3.5 0.59375 -3.878906 0.28125 -4.265625 C -0.0195312 -4.660156 -0.21875 -5.007812 -0.3125 -5.3125 C -0.40625 -5.675781 -0.34375 -6.015625 -0.125 -6.328125 C 0.0820312 -6.640625 0.453125 -6.820312 0.984375 -6.875 C 1.234375 -6.894531 1.46875 -6.878906 1.6875 -6.828125 C 1.914062 -6.785156 2.128906 -6.679688 2.328125 -6.515625 C 2.367188 -6.472656 2.394531 -6.425781 2.40625 -6.375 C 2.425781 -6.320312 2.421875 -6.257812 2.390625 -6.1875 C 2.316406 -6.070312 2.21875 -6.015625 2.09375 -6.015625 C 2 -6.015625 1.910156 -6.023438 1.828125 -6.046875 C 1.734375 -6.085938 1.648438 -6.125 1.578125 -6.15625 C 1.523438 -6.1875 1.472656 -6.210938 1.421875 -6.234375 C 1.253906 -6.296875 1.125 -6.285156 1.03125 -6.203125 C 0.945312 -6.128906 0.90625 -6.003906 0.90625 -5.828125 C 0.914062 -5.535156 1.035156 -5.21875 1.265625 -4.875 C 1.492188 -4.539062 1.722656 -4.234375 1.953125 -3.953125 C 2.046875 -3.847656 2.125 -3.75 2.1875 -3.65625 C 2.25 -3.59375 2.414062 -3.601562 2.6875 -3.6875 C 2.96875 -3.769531 3.472656 -4.003906 4.203125 -4.390625 C 4.929688 -4.773438 5.296875 -4.898438 5.296875 -4.765625 Z M 1.390625 -0.84375 C 1.566406 -0.851562 1.679688 -0.941406 1.734375 -1.109375 C 1.785156 -1.285156 1.800781 -1.476562 1.78125 -1.6875 C 1.769531 -1.90625 1.757812 -2.066406 1.75 -2.171875 C 1.726562 -2.234375 1.6875 -2.269531 1.625 -2.28125 C 1.5625 -2.300781 1.503906 -2.300781 1.453125 -2.28125 C 1.265625 -2.125 1.125 -1.929688 1.03125 -1.703125 C 0.945312 -1.472656 0.957031 -1.269531 1.0625 -1.09375 C 1.09375 -1.03125 1.132812 -0.972656 1.1875 -0.921875 C 1.25 -0.878906 1.316406 -0.851562 1.390625 -0.84375 Z M 1.390625 -0.84375 "/></g></g></g><g fill="#000000" fill-opacity="1"><g transform="translate(40.593229, 33.828482)"><g><path d="M 6.703125 -4.78125 C 6.796875 -4.863281 6.84375 -4.753906 6.84375 -4.453125 C 6.851562 -4.160156 6.582031 -3.742188 6.03125 -3.203125 C 5.476562 -2.660156 4.910156 -2.40625 4.328125 -2.4375 C 4.191406 -2.445312 4.078125 -2.4375 3.984375 -2.40625 C 3.898438 -2.375 3.828125 -2.300781 3.765625 -2.1875 C 3.703125 -2.082031 3.625 -1.984375 3.53125 -1.890625 C 3.53125 -1.890625 3.523438 -1.882812 3.515625 -1.875 C 3.160156 -1.488281 2.738281 -1.234375 2.25 -1.109375 C 1.757812 -0.992188 1.296875 -1.035156 0.859375 -1.234375 C 0.421875 -1.429688 0.109375 -1.804688 -0.078125 -2.359375 C -0.210938 -2.859375 -0.222656 -3.359375 -0.109375 -3.859375 C -0.015625 -4.285156 0.140625 -4.691406 0.359375 -5.078125 C 0.628906 -5.597656 0.976562 -5.960938 1.40625 -6.171875 C 1.832031 -6.378906 2.316406 -6.5 2.859375 -6.53125 C 3.671875 -6.570312 4.179688 -6.191406 4.390625 -5.390625 C 4.515625 -4.929688 4.546875 -4.46875 4.484375 -4 C 4.460938 -3.882812 4.441406 -3.769531 4.421875 -3.65625 C 4.398438 -3.582031 4.378906 -3.507812 4.359375 -3.4375 C 4.335938 -3.175781 4.445312 -3.054688 4.6875 -3.078125 C 5.363281 -3.203125 6.035156 -3.769531 6.703125 -4.78125 Z M 1.953125 -1.796875 C 2.367188 -1.992188 2.660156 -2.320312 2.828125 -2.78125 C 2.140625 -3.21875 1.675781 -3.847656 1.4375 -4.671875 C 1.226562 -4.285156 1.097656 -3.832031 1.046875 -3.3125 C 1.003906 -2.800781 1.054688 -2.378906 1.203125 -2.046875 C 1.347656 -1.710938 1.597656 -1.628906 1.953125 -1.796875 Z M 3.140625 -3.6875 C 3.242188 -3.851562 3.304688 -4.050781 3.328125 -4.28125 C 3.347656 -4.519531 3.335938 -4.757812 3.296875 -5 C 3.253906 -5.238281 3.191406 -5.421875 3.109375 -5.546875 C 3.035156 -5.679688 2.953125 -5.722656 2.859375 -5.671875 C 2.703125 -5.535156 2.613281 -5.335938 2.59375 -5.078125 C 2.582031 -4.816406 2.625 -4.550781 2.71875 -4.28125 C 2.8125 -4.019531 2.953125 -3.820312 3.140625 -3.6875 Z M 3.140625 -3.6875 "/></g></g></g><g fill="#000000" fill-opacity="1"><g transform="translate(47.101164, 33.828482)"><g><path d="M 7.21875 -3.359375 C 7.664062 -4.066406 7.929688 -4.515625 8.015625 -4.703125 C 8.109375 -4.898438 8.175781 -4.894531 8.21875 -4.6875 C 8.269531 -4.476562 8.125 -4.003906 7.78125 -3.265625 C 7.445312 -2.535156 7.03125 -1.96875 6.53125 -1.5625 C 6.03125 -1.164062 5.5625 -1.019531 5.125 -1.125 C 4.695312 -1.226562 4.390625 -1.53125 4.203125 -2.03125 C 4.015625 -2.53125 3.957031 -3.15625 4.03125 -3.90625 C 4.03125 -3.925781 4.035156 -3.960938 4.046875 -4.015625 C 4.066406 -4.140625 4.09375 -4.328125 4.125 -4.578125 C 4.15625 -4.828125 4.175781 -5.082031 4.1875 -5.34375 C 4.195312 -5.613281 4.1875 -5.835938 4.15625 -6.015625 C 4.125 -6.191406 4.046875 -6.253906 3.921875 -6.203125 C 3.609375 -6.035156 3.304688 -5.703125 3.015625 -5.203125 C 2.722656 -4.710938 2.457031 -4.195312 2.21875 -3.65625 C 1.976562 -3.125 1.8125 -2.691406 1.71875 -2.359375 C 1.675781 -2.253906 1.632812 -2.144531 1.59375 -2.03125 C 1.539062 -1.875 1.484375 -1.722656 1.421875 -1.578125 C 1.253906 -1.140625 0.960938 -0.96875 0.546875 -1.0625 C 0.304688 -1.113281 0.164062 -1.257812 0.125 -1.5 C 0.113281 -1.675781 0.109375 -1.847656 0.109375 -2.015625 C 0.109375 -2.117188 0.101562 -2.210938 0.09375 -2.296875 C 0.0703125 -3.585938 0.0390625 -4.890625 0 -6.203125 C 0.0078125 -6.347656 0.078125 -6.453125 0.203125 -6.515625 C 0.328125 -6.578125 0.472656 -6.609375 0.640625 -6.609375 C 0.765625 -6.609375 0.882812 -6.570312 1 -6.5 C 1.113281 -6.425781 1.1875 -6.28125 1.21875 -6.0625 C 1.226562 -5.988281 1.234375 -5.910156 1.234375 -5.828125 C 1.242188 -5.796875 1.25 -5.757812 1.25 -5.71875 C 1.269531 -5.539062 1.28125 -5.390625 1.28125 -5.265625 C 1.28125 -5.066406 1.289062 -4.929688 1.3125 -4.859375 C 1.34375 -4.796875 1.398438 -4.800781 1.484375 -4.875 C 1.566406 -4.945312 1.707031 -5.128906 1.90625 -5.421875 C 2.238281 -5.929688 2.648438 -6.363281 3.140625 -6.71875 C 3.585938 -7.039062 4.078125 -7.175781 4.609375 -7.125 C 5.066406 -7.070312 5.375 -6.828125 5.53125 -6.390625 C 5.601562 -6.171875 5.640625 -5.945312 5.640625 -5.71875 C 5.640625 -5.5 5.625 -5.273438 5.59375 -5.046875 C 5.582031 -4.816406 5.5625 -4.578125 5.53125 -4.328125 C 5.519531 -4.253906 5.507812 -4.179688 5.5 -4.109375 C 5.414062 -3.273438 5.4375 -2.71875 5.5625 -2.4375 C 5.695312 -2.15625 5.894531 -2.0625 6.15625 -2.15625 C 6.414062 -2.25 6.769531 -2.648438 7.21875 -3.359375 Z M 7.21875 -3.359375 "/></g></g></g></g></g><g transform="matrix(1, 0, 0, 1, 22, 35)"><g clip-path="url(#266a2680d9)"><g clip-path="url(#8f8d31e59b)"><g fill="#000000" fill-opacity="1"><g transform="translate(0.578399, 4.058331)"><g><path d="M 1.0625 -2.40625 L 1.3125 -2.40625 L 2.296875 0 L 2.03125 0 L 1.75 -0.671875 L 0.625 -0.671875 L 0.34375 0 L 0.0625 0 Z M 1.65625 -0.90625 L 1.1875 -2.046875 L 0.71875 -0.90625 Z M 1.65625 -0.90625 "/></g></g></g></g><g fill="#000000" fill-opacity="1"><g transform="translate(5.153594, 4.058331)"><g><path d="M 0.359375 -2.40625 L 0.578125 -2.40625 L 2.0625 -0.46875 L 2.0625 -2.40625 L 2.328125 -2.40625 L 2.328125 0 L 2.09375 0 L 0.625 -1.9375 L 0.625 0 L 0.359375 0 Z M 0.359375 -2.40625 "/></g></g></g><g fill="#000000" fill-opacity="1"><g transform="translate(10.038332, 4.058331)"><g><path d="M 0.359375 -2.40625 L 1.125 -2.40625 C 1.289062 -2.40625 1.453125 -2.375 1.609375 -2.3125 C 1.765625 -2.25 1.894531 -2.160156 2 -2.046875 C 2.113281 -1.941406 2.203125 -1.816406 2.265625 -1.671875 C 2.335938 -1.523438 2.375 -1.367188 2.375 -1.203125 C 2.375 -1.035156 2.335938 -0.878906 2.265625 -0.734375 C 2.203125 -0.585938 2.113281 -0.457031 2 -0.34375 C 1.894531 -0.238281 1.765625 -0.15625 1.609375 -0.09375 C 1.453125 -0.03125 1.289062 0 1.125 0 L 0.359375 0 Z M 1.125 -0.234375 C 1.257812 -0.234375 1.382812 -0.257812 1.5 -0.3125 C 1.625 -0.363281 1.734375 -0.429688 1.828125 -0.515625 C 1.921875 -0.609375 1.988281 -0.710938 2.03125 -0.828125 C 2.082031 -0.941406 2.109375 -1.066406 2.109375 -1.203125 C 2.109375 -1.335938 2.082031 -1.460938 2.03125 -1.578125 C 1.988281 -1.691406 1.921875 -1.789062 1.828125 -1.875 C 1.734375 -1.96875 1.625 -2.039062 1.5 -2.09375 C 1.382812 -2.144531 1.257812 -2.171875 1.125 -2.171875 L 0.625 -2.171875 L 0.625 -0.234375 Z M 1.125 -0.234375 "/></g></g></g><g fill="#000000" fill-opacity="1"><g transform="translate(14.819891, 4.058331)"><g><path d="M 0.359375 -2.40625 L 1.328125 -2.40625 C 1.429688 -2.40625 1.523438 -2.382812 1.609375 -2.34375 C 1.703125 -2.3125 1.78125 -2.265625 1.84375 -2.203125 C 1.914062 -2.140625 1.96875 -2.0625 2 -1.96875 C 2.039062 -1.882812 2.0625 -1.789062 2.0625 -1.6875 C 2.0625 -1.550781 2.035156 -1.4375 1.984375 -1.34375 C 1.929688 -1.257812 1.875 -1.191406 1.8125 -1.140625 C 1.738281 -1.078125 1.65625 -1.03125 1.5625 -1 L 2.125 0 L 1.84375 0 L 1.3125 -0.96875 L 0.625 -0.96875 L 0.625 0 L 0.359375 0 Z M 1.328125 -1.203125 C 1.472656 -1.203125 1.585938 -1.242188 1.671875 -1.328125 C 1.765625 -1.421875 1.8125 -1.539062 1.8125 -1.6875 C 1.8125 -1.832031 1.765625 -1.945312 1.671875 -2.03125 C 1.585938 -2.125 1.472656 -2.171875 1.328125 -2.171875 L 0.625 -2.171875 L 0.625 -1.203125 Z M 1.328125 -1.203125 "/></g></g></g><g fill="#000000" fill-opacity="1"><g transform="translate(19.343496, 4.058331)"><g><path d="M 1.0625 -2.40625 L 1.3125 -2.40625 L 2.296875 0 L 2.03125 0 L 1.75 -0.671875 L 0.625 -0.671875 L 0.34375 0 L 0.0625 0 Z M 1.65625 -0.90625 L 1.1875 -2.046875 L 0.71875 -0.90625 Z M 1.65625 -0.90625 "/></g></g></g><g fill="#000000" fill-opacity="1"><g transform="translate(23.91869, 4.058331)"><g><path d="M 0.359375 -2.40625 L 1.125 -2.40625 C 1.289062 -2.40625 1.453125 -2.375 1.609375 -2.3125 C 1.765625 -2.25 1.894531 -2.160156 2 -2.046875 C 2.113281 -1.941406 2.203125 -1.816406 2.265625 -1.671875 C 2.335938 -1.523438 2.375 -1.367188 2.375 -1.203125 C 2.375 -1.035156 2.335938 -0.878906 2.265625 -0.734375 C 2.203125 -0.585938 2.113281 -0.457031 2 -0.34375 C 1.894531 -0.238281 1.765625 -0.15625 1.609375 -0.09375 C 1.453125 -0.03125 1.289062 0 1.125 0 L 0.359375 0 Z M 1.125 -0.234375 C 1.257812 -0.234375 1.382812 -0.257812 1.5 -0.3125 C 1.625 -0.363281 1.734375 -0.429688 1.828125 -0.515625 C 1.921875 -0.609375 1.988281 -0.710938 2.03125 -0.828125 C 2.082031 -0.941406 2.109375 -1.066406 2.109375 -1.203125 C 2.109375 -1.335938 2.082031 -1.460938 2.03125 -1.578125 C 1.988281 -1.691406 1.921875 -1.789062 1.828125 -1.875 C 1.734375 -1.96875 1.625 -2.039062 1.5 -2.09375 C 1.382812 -2.144531 1.257812 -2.171875 1.125 -2.171875 L 0.625 -2.171875 L 0.625 -0.234375 Z M 1.125 -0.234375 "/></g></g></g><g fill="#000000" fill-opacity="1"><g transform="translate(28.700248, 4.058331)"><g><path d="M 0.359375 -2.40625 L 2.015625 -2.40625 L 2.015625 -2.171875 L 0.625 -2.171875 L 0.625 -1.375 L 1.734375 -1.375 L 1.734375 -1.140625 L 0.625 -1.140625 L 0.625 -0.234375 L 2.046875 -0.234375 L 2.046875 0 L 0.359375 0 Z M 0.359375 -2.40625 "/></g></g></g></g></g></svg>